
# Blender v2.76 (sub 0) OBJ File: ''
# www.blender.org
v 0.000000 0.000000 0.000000
v 0.000000 0.000000 -1.000000
v -0.866025 0.000000 -0.500000
v -0.866025 0.000000 0.500000
v 0.000000 0.000000 1.000000
v 0.866025 0.000000 0.500000
v 0.866025 0.000000 -0.500000
v 0.000000 0.500000 0.000000
v 0.000000 0.500000 -1.000000
v -0.866025 0.500000 -0.500000
v -0.866025 0.500000 0.500000
v 0.000000 0.500000 1.000000
v 0.866025 0.500000 0.500000
v 0.866025 0.500000 -0.500000
vn 0.000000 -1.000000 0.000000
vn 0.000000 1.000000 0.000000
vn 0.500000 0.000000 -0.866000
vn -0.500000 0.000000 -0.866000
vn 1.000000 0.000000 0.000000
vn 0.500000 0.000000 0.866000
vn -0.500000 0.000000 0.866000
vn -1.000000 0.000000 0.000000
s off
f 1//1 3//1 2//1
f 1//1 4//1 3//1
f 1//1 5//1 4//1
f 1//1 6//1 5//1
f 1//1 7//1 6//1
f 1//1 2//1 7//1
f 8//2 9//2 10//2
f 8//2 10//2 11//2
f 8//2 11//2 12//2
f 8//2 12//2 13//2
f 8//2 13//2 14//2
f 8//2 14//2 9//2
f 2//3 9//3 14//3
f 3//4 10//4 9//4
f 7//5 14//5 13//5
f 6//6 13//6 12//6
f 5//7 12//7 11//7
f 4//8 11//8 10//8
f 7//3 2//3 14//3
f 2//4 3//4 9//4
f 6//5 7//5 13//5
f 5//6 6//6 12//6
f 4//7 5//7 11//7
f 3//8 4//8 10//8