
# Blender v2.76 (sub 0) OBJ File: 'ship.blend'
# www.blender.org
v -0.500000 0.000000 3.000000
v 0.500000 0.000000 3.000000
v -0.500000 0.000000 -3.000000
v 0.500000 0.000000 -3.000000
v -1.000000 1.000000 3.100000
v 1.000000 1.000000 3.100000
v -1.000000 1.000000 -4.700000
v 1.000000 1.000000 -4.700000
v -0.500000 0.000000 -3.000000
v -0.500000 0.000000 3.000000
v 0.500000 0.000000 3.000000
v 0.500000 0.000000 -3.000000
v -1.000000 1.000000 -4.700000
v -1.000000 1.000000 3.100000
v 1.000000 1.000000 3.100000
v 1.000000 1.000000 -4.700000
v -0.771409 1.000000 -1.049680
v -0.771409 1.000000 2.850320
v 0.228591 1.000000 2.850320
v 0.228591 1.000000 -1.049680
v -0.771409 1.500000 -1.049680
v -0.771409 1.500000 2.850320
v 0.228591 1.500000 2.850320
v 0.228591 1.500000 -1.049680
v -0.521409 1.500000 -0.872743
v -0.521409 1.500000 1.077257
v -0.021409 1.500000 1.077257
v -0.021409 1.500000 -0.872743
v -0.521409 2.000000 -0.872743
v -0.521409 2.000000 1.077257
v -0.021409 2.000000 1.077257
v -0.021409 2.000000 -0.872743
vn 0.000000 0.000000 1.000000
vn 0.000000 -0.861900 -0.507000
vn 0.000000 -0.099500 0.995000
vn 0.894400 -0.447200 0.000000
vn -0.894400 -0.447200 0.000000
vn 0.000000 -1.000000 0.000000
vn 0.000000 1.000000 0.000000
vn 1.000000 0.000000 0.000000
vn -1.000000 0.000000 0.000000
vn 0.000000 0.000000 -1.000000
s off
f 3//1 4//1 12//1
f 8//1 7//1 13//1
f 3//2 7//2 8//2
f 2//3 6//3 5//3
f 4//4 8//4 6//4
f 3//5 1//5 5//5
f 9//6 12//6 11//6
f 2//1 1//1 10//1
f 4//1 2//1 11//1
f 1//1 3//1 9//1
f 13//7 17//7 20//7
f 5//1 6//1 15//1
f 6//1 8//1 16//1